<svg xmlns="http://www.w3.org/2000/svg" width="96" height="96" viewBox="0 0 96 96">
  <path id="Path_4" data-name="Path 4" d="M48,0A48,48,0,1,1,0,48,48.023,48.023,0,0,1,48,0Zm0,18c-8.147,0-9.169.035-12.369.181a22.022,22.022,0,0,0-7.282,1.394,15.341,15.341,0,0,0-8.774,8.774,22.025,22.025,0,0,0-1.394,7.282C18.035,38.831,18,39.853,18,48s.035,9.169.18,12.369a22.025,22.025,0,0,0,1.394,7.282,15.341,15.341,0,0,0,8.774,8.774,22.027,22.027,0,0,0,7.282,1.394c3.2.146,4.222.181,12.369.181s9.169-.035,12.369-.181a22.025,22.025,0,0,0,7.282-1.394,15.34,15.34,0,0,0,8.774-8.774,22.025,22.025,0,0,0,1.394-7.282C77.966,57.169,78,56.147,78,48s-.035-9.169-.181-12.369a22.025,22.025,0,0,0-1.394-7.282,15.341,15.341,0,0,0-8.774-8.774,22.02,22.02,0,0,0-7.282-1.394C57.169,18.035,56.147,18,48,18Zm0,5.405c8.01,0,8.959.031,12.123.175a16.6,16.6,0,0,1,5.57,1.033,9.936,9.936,0,0,1,5.694,5.694,16.6,16.6,0,0,1,1.033,5.57c.144,3.164.175,4.112.175,12.123s-.031,8.959-.175,12.123a16.6,16.6,0,0,1-1.033,5.57,9.936,9.936,0,0,1-5.694,5.694,16.6,16.6,0,0,1-5.57,1.033c-3.163.144-4.112.175-12.123.175s-8.96-.031-12.123-.175a16.6,16.6,0,0,1-5.57-1.033,9.934,9.934,0,0,1-5.694-5.694,16.6,16.6,0,0,1-1.033-5.57c-.144-3.164-.175-4.112-.175-12.123s.03-8.959.175-12.123a16.6,16.6,0,0,1,1.033-5.57,9.934,9.934,0,0,1,5.694-5.694,16.6,16.6,0,0,1,5.57-1.033c3.163-.144,4.112-.175,12.123-.175Zm0,9.189A15.405,15.405,0,1,0,63.405,48,15.405,15.405,0,0,0,48,32.595ZM48,58A10,10,0,1,1,58,48,10,10,0,0,1,48,58ZM67.614,31.986a3.6,3.6,0,1,1-3.6-3.6A3.6,3.6,0,0,1,67.614,31.986Z" fill="#ff64cb" fill-rule="evenodd"/>
</svg>
